<?xml version="1.0" encoding="UTF-8"?><svg id="Capa_2" xmlns="http://www.w3.org/2000/svg" xmlns:xlink="http://www.w3.org/1999/xlink" viewBox="0 0 10.37 11.86"><defs><style>.cls-1{fill:#fff;}.cls-2,.cls-3{fill:none;}.cls-3{clip-path:url(#clippath);}</style><clipPath id="clippath"><rect class="cls-2" width="10.37" height="11.86"/></clipPath></defs><g id="Capa_1-2"><g class="cls-3"><path class="cls-1" d="m9.98.04l-.47.35c-2.44,1.83-4.93,5.61-6.18,8.69-.19-.3-.25-.39-.44-.72-.76-1.13-1.73-2.1-2.18-2.45L0,6.24l.02.05c.49.59,1.36,1.91,2.67,4.81.08.13.17.25.26.36.26.3.52.36.69.36h0c.5,0,.79-.43,1-.94C5.95,5.55,9.04,1.89,10.38.63l-.4-.59Z"/></g></g></svg>