<?xml version="1.0" encoding="UTF-8"?><svg id="Capa_2" xmlns="http://www.w3.org/2000/svg" xmlns:xlink="http://www.w3.org/1999/xlink" viewBox="0 0 23.06 16.3"><defs><style>.cls-1{clip-path:url(#clippath-2);}.cls-1,.cls-2,.cls-3,.cls-4{fill:none;}.cls-5{fill:#f4f4f4;}.cls-3{clip-path:url(#clippath);}.cls-4{clip-path:url(#clippath-1);}</style><clipPath id="clippath"><rect class="cls-2" x="1.03" y="3.27" width="21" height="9.75" transform="translate(-2.08 4.4) rotate(-19.84)"/></clipPath><clipPath id="clippath-1"><rect class="cls-2" x="1.03" y="3.27" width="21" height="9.75" transform="translate(-2.08 4.4) rotate(-19.84)"/></clipPath><clipPath id="clippath-2"><rect class="cls-2" x="1.03" y="3.27" width="21" height="9.75" transform="translate(-2.08 4.4) rotate(-19.84)"/></clipPath></defs><g id="Capa_1-2"><g class="cls-3"><g class="cls-4"><g class="cls-1"><path class="cls-5" d="m19.83,4.84c-.08.14-.2.28-.35.31-.36.08-.76-.3-.68-.66,0,0,0,0,0,0,.07-.34.4-.64.71-.77.07-.03.16-.05.23-.03.13.03.23.14.27.27.05.14.03.29,0,.43-.04.16-.1.32-.18.46Zm-1.66-1.88c0-.38.31-.99.72-1.03.26-.02.41.23.47.46.07.27.03.6-.08.85-.01.03-.03.06-.04.08-.08.14-.2.25-.36.29-.13.03-.27,0-.39-.08-.18-.12-.32-.35-.33-.57Zm.63,3.32c-.15.21-.42.33-.68.31-.16-.02-.3-.08-.43-.16-.16-.09-.33-.16-.51-.2s-.36-.06-.54-.05c-.15,0-.31,0-.45-.06-.24-.09-.44-.33-.48-.59-.04-.24.05-.5.23-.66.28-.25.69-.28.94-.58.23-.27.45-.68.88-.57.43.1.45.57.54.92.1.38.45.6.59.95.09.23.06.5-.08.7Zm-3.38-2.63c0-.17.02-.33.07-.49.04-.14.11-.27.21-.37.1-.09.24-.13.37-.09.08.03.14.08.19.15.2.27.33.71.23,1.03h0c-.11.35-.65.48-.92.22-.12-.11-.15-.29-.15-.46Zm1.25-.97s0-.06,0-.09c.02-.28.12-.58.31-.79.16-.17.41-.33.63-.19.35.23.36.92.18,1.25-.1.19-.33.33-.54.35-.14.01-.28-.02-.38-.11-.12-.1-.18-.26-.19-.42Zm3.57,2.31c.55-.74.71-1.65.42-2.45-.51-1.41-2.22-2.08-3.82-1.5-.59.21-1.11.58-1.49,1.05-.36.44-.57.96-.63,1.48l-8.57,3.09c-.38-.37-.87-.63-1.43-.74-.59-.12-1.22-.07-1.81.14-1.6.58-2.49,2.19-1.98,3.6.29.8.99,1.4,1.88,1.62-.55.74-.71,1.65-.42,2.45.51,1.41,2.22,2.08,3.82,1.5.59-.21,1.11-.58,1.49-1.05.36-.44.57-.96.63-1.48l8.57-3.09c.38.37.87.63,1.43.74.59.12,1.22.07,1.81-.14,1.6-.58,2.49-2.19,1.98-3.6-.29-.8-.99-1.4-1.88-1.62Z"/></g></g></g></g></svg>