<?xml version="1.0" encoding="UTF-8"?><svg id="Capa_2" xmlns="http://www.w3.org/2000/svg" xmlns:xlink="http://www.w3.org/1999/xlink" viewBox="0 0 21.75 21"><defs><style>.cls-1{fill:#fff;}.cls-2,.cls-3{fill:none;}.cls-3{clip-path:url(#clippath);}</style><clipPath id="clippath"><rect class="cls-2" width="21.75" height="21"/></clipPath></defs><g id="Capa_1-2"><g class="cls-3"><path class="cls-1" d="m21.16,20.34c-.06.07-.14.11-.23.12-.22-.01-.43-.08-.61-.2l-.05-.03c-1.5-.71-3.08-1.06-4.74-1.06-1.61,0-3.21.16-4.79.47l-.34.06c-1.59.29-3.24.58-4.78.19-.51-.13-1.17-.4-1.45-.95-.17-.4-.19-.81-.04-1.22.13-.37.3-.72.51-1.05.09.05.17.1.26.15-.18.23-.32.48-.42.76-.16.43-.14.84.08,1.24.25.43.73.69,1.48.8,1.45.22,2.92,0,4.34-.23l.3-.05c1.72-.3,3.46-.44,5.21-.43,1.75.01,3.42.38,5.01,1.1.07.03.26.13.29.22,0,.03,0,.06-.03.09ZM4.07,15.44c-.23-.18-.46-.37-.67-.58.5-.67,1-1.41,1.54-2.29.15.01.3.02.45.03-.46.94-.89,1.9-1.32,2.84h0Zm-1.1-1.01c-.09-.1-.17-.2-.26-.3.61-.47,1.14-1,1.61-1.61.07,0,.14.01.21.02-.49.79-.94,1.46-1.39,2.06-.06-.06-.12-.11-.17-.17Zm-.59-.73c-.36-.5-.66-1.02-.91-1.58.73.14,1.47.25,2.21.34-.39.46-.82.88-1.3,1.24Zm-1.44-3.23c2.27.87,4.61,1.42,7.03,1.64-2.27.05-4.52-.15-6.74-.6-.12-.34-.22-.69-.29-1.05Zm-.16-1.88c0-.06.01-.12.01-.18,2.54,1.49,5.49,2,8.06,2.29.72.08,1.45.15,2.18.22l.65.06c.04.28.07.56.09.85-3.76.2-7.4-.39-10.91-1.77-.08-.49-.1-.98-.08-1.47h0Zm.3-1.76c2.53,1.3,5.2,2.2,8,2.71.77.15,1.56.29,2.42.42.05.22.09.43.13.65l-.56-.05c-.72-.07-1.45-.14-2.17-.22-2.59-.29-5.55-.8-8.07-2.33.05-.4.13-.8.25-1.19Zm.52-1.32c3.05,1.56,6.26,2.7,9.61,3.41.07.22.13.44.19.66-.79-.12-1.54-.25-2.25-.39-2.79-.51-5.44-1.41-7.96-2.71.11-.33.25-.65.41-.96Zm1.59-2.13c.55-.5,1.15-.91,1.82-1.23.08.01.17.03.25.04-1.16.86-1.93,1.98-2.32,3.37-.36-.17-.72-.35-1.08-.53.37-.61.81-1.16,1.33-1.65h0Zm2.92-.91c-1.02,1.01-1.68,2.22-1.96,3.63-.29-.13-.59-.26-.87-.39.38-1.45,1.19-2.58,2.45-3.4.13.04.26.09.39.15Zm4.75,5.46c.05.13.1.25.15.38-.14-.03-.28-.06-.42-.09.09-.1.18-.19.27-.29h0Zm-.66-1.36c.15.27.29.54.43.83-.23.23-.43.45-.62.67-.31-.08-.62-.16-.94-.25.32-.47.7-.89,1.13-1.26h0Zm-.42-.68c.08.12.16.24.23.36-.51.43-.94.91-1.31,1.46-.12-.03-.23-.07-.35-.1.43-.62.9-1.19,1.43-1.72h0Zm-.51-.71c.1.13.2.27.3.41-.59.59-1.12,1.23-1.59,1.92-.09-.03-.17-.05-.26-.08.42-.81.94-1.56,1.55-2.25h0Zm-.96.12c.15-.25.31-.48.47-.71.09.1.18.2.26.31-.66.74-1.22,1.55-1.67,2.42l-.12-.04c.3-.61.65-1.3,1.06-1.98h0Zm-2.81,1.35c-.34-.13-.68-.27-1.02-.41.27-1.41.93-2.61,1.97-3.6.28.15.56.33.81.52-.92,1-1.51,2.16-1.77,3.49h0Zm2.05-3.27c.15.13.3.26.45.4.14.13.27.26.4.4-.19.27-.38.54-.56.84-.44.72-.81,1.45-1.11,2.09-.3-.1-.6-.21-.89-.32.24-1.3.81-2.43,1.71-3.4h0Zm-.96-1.81c1.32.71,2.48,1.64,3.47,2.77.99,1.13,1.75,2.4,2.28,3.81.52,1.41.77,2.87.75,4.37-.01,1.5-.29,2.96-.83,4.36-.29.1-.59.18-.89.25.48-.86.77-1.78.88-2.76.26-1.95.07-3.86-.55-5.73,0-.01,0-.02-.01-.04-.67-2.01-1.77-3.75-3.31-5.22-.72-.72-1.56-1.25-2.51-1.59.24-.09.48-.16.72-.22Zm1-.2c2.64,1.49,4.42,3.12,5.43,4.98.85,1.63,1.23,3.37,1.16,5.21-.06,1.67-.36,3.31-.89,4.9-.03.01-.06.04-.09.05-.16.08-.32.14-.48.21.5-1.41.75-2.86.74-4.35,0-1.49-.27-2.94-.78-4.34-.52-1.38-1.25-2.64-2.21-3.77-.95-1.13-2.07-2.06-3.35-2.81.16-.03.31-.06.47-.08Zm.88-.08c1.49.46,2.8,1.23,3.94,2.29,1.14,1.07,1.99,2.32,2.55,3.78.51,1.4.7,2.84.58,4.33-.12,1.48-.55,2.87-1.28,4.17-.17.12-.34.23-.51.34.47-1.51.74-3.06.79-4.64.07-1.9-.33-3.7-1.2-5.39-.98-1.81-2.67-3.41-5.14-4.87.09,0,.18-.01.28-.01Zm2.73.25c-.12.06-.23.14-.35.21-.25-.14-.5-.27-.75-.4.37.04.74.1,1.11.19Zm.77.21c.1.03.21.06.32.1-.2.15-.39.3-.59.46-.11-.08-.22-.16-.34-.24.2-.12.4-.23.61-.32Zm1.09.41c-.26.19-.51.4-.76.61-.1-.08-.2-.16-.3-.23.23-.19.46-.36.7-.53.13.05.25.1.37.16Zm1.38.77c-.38.27-.76.53-1.13.8-.23-.25-.48-.49-.74-.72.28-.23.57-.46.86-.68.35.18.69.38,1.02.6Zm.75.57l-1.22,1.01c-.13-.17-.27-.34-.42-.51.4-.29.8-.57,1.21-.86.15.12.3.23.44.35h0Zm.46.43c-.05.88-.21,1.73-.48,2.57-.25-.54-.54-1.06-.88-1.55l1.31-1.08s.04.04.05.06h0Zm.34.36c.17.19.32.38.47.59-.14.96-.43,1.88-.85,2.75-.05-.15-.1-.3-.15-.45-.02-.06-.05-.12-.07-.17.32-.88.52-1.78.6-2.71h0Zm1.19,1.85c-.2,1.02-.62,1.95-1.24,2.78-.05-.26-.11-.53-.18-.78.47-.89.8-1.82.99-2.81.16.26.3.54.43.82h0Zm.34.96c.18.69.26,1.39.24,2.1-.51-.02-1.01-.05-1.51-.09.53-.72.92-1.51,1.16-2.37.04.12.08.23.11.36h0Zm.13,3.19c-.52-.05-1.04-.1-1.56-.15-.01-.17-.03-.34-.04-.51.56.05,1.12.08,1.68.1-.02.18-.04.37-.08.55h0Zm-.29,1.2c-.4-.1-.82-.2-1.26-.29,0-.23,0-.47,0-.7.49.05.98.09,1.48.14-.06.28-.13.56-.22.84Zm-.12.37c-.39-.08-.78-.13-1.17-.17,0-.04,0-.08.01-.12.4.08.79.17,1.17.26,0,0,0,.02,0,.03h0Zm-1.26.67c.01-.1.03-.2.04-.3.08,0,.15.02.22.03-.09.1-.17.19-.26.28h0Zm.11,1.48c-.18.1-.36.2-.55.29.13-.39.24-.79.33-1.19.3-.24.57-.51.81-.81.12.02.23.05.35.06-.26.58-.57,1.13-.94,1.65Zm-5.71.37c.42.1.85.15,1.28.16-.03.2-.07.39-.11.58-1.34-.05-2.59-.4-3.76-1.04.07-.28.14-.56.22-.84.71.55,1.5.92,2.37,1.14Zm-.71-1.8c.58-.05,1.17-.1,1.74-.16l.39-.04c0,.27,0,.55,0,.82-.74-.09-1.45-.3-2.13-.62Zm2.11.98c-.02.21-.04.41-.07.62-.42,0-.84-.05-1.25-.15-.87-.21-1.65-.6-2.34-1.16.02-.06.04-.13.05-.2,0,0,0-.01,0-.02.27,0,.53-.02.8-.04.87.51,1.8.82,2.8.94h0Zm-4.37,2.23c.09-.45.18-.89.29-1.34,1.18.63,2.43.97,3.76,1.04-.1.38-.24.74-.41,1.09-1.24-.12-2.45-.38-3.63-.79Zm3.21,1.47c-1.16.13-2.31.04-3.44-.27.05-.28.1-.56.16-.85,1.14.39,2.31.65,3.51.77-.07.12-.15.23-.23.34h0Zm-4.72-.72c.26-1.19.58-2.55,1-3.87.12,0,.25,0,.37,0,.11,0,.22,0,.33,0-.4,1.37-.71,2.76-.95,4.16-.26-.09-.51-.18-.76-.29h0Zm-1.54-.87c.45-1,.92-2.02,1.41-3.03.25.01.51.02.76.03-.4,1.27-.7,2.57-.96,3.72-.42-.21-.83-.44-1.21-.71Zm17.34,4.47c-.1-.29-.3-.48-.58-.59-1.66-.76-3.41-1.14-5.23-1.15-1.78-.01-3.55.13-5.31.44l-.3.05c-1.38.21-2.81.43-4.18.23-.57-.09-.93-.26-1.09-.54-.13-.26-.14-.53-.04-.8.09-.25.23-.48.39-.69,1.34.63,2.76.95,4.24.96,1.37.01,2.66-.28,3.89-.87,3.7-1.82,5.77-6.32,4.71-10.25-.75-2.8-3.09-5-6.25-5.91C8.56,0,5.01.72,2.7,2.84c-.8.74-1.42,1.61-1.88,2.59-.46.99-.71,2.02-.75,3.11-.02.77.06,1.54.23,2.29.18.75.44,1.47.8,2.16.36.69.8,1.32,1.32,1.89.52.57,1.1,1.07,1.75,1.5-.24.37-.43.76-.57,1.18-.19.55-.16,1.09.08,1.62.29.58.91,1.01,1.8,1.23,1.65.41,3.36.11,5.01-.18l.34-.06c1.55-.3,3.11-.46,4.69-.46,1.58,0,3.08.33,4.51,1l.05.03c.25.15.53.24.82.26h.06c.26-.02.47-.13.63-.34.13-.16.17-.34.12-.54Z"/></g></g></svg>