<?xml version="1.0" encoding="UTF-8"?><svg id="Capa_2" xmlns="http://www.w3.org/2000/svg" xmlns:xlink="http://www.w3.org/1999/xlink" viewBox="0 0 23.36 21.75"><defs><style>.cls-1{fill:#fff;}.cls-2,.cls-3{fill:none;}.cls-3{clip-path:url(#clippath);}</style><clipPath id="clippath"><rect class="cls-2" width="23.36" height="21.75"/></clipPath></defs><g id="Capa_1-2"><g class="cls-3"><path class="cls-1" d="m61.53,32.44c-.18,0-.33.06-.45.18s-.19.27-.19.45c0,.18.06.33.19.45.12.12.28.19.45.19.18,0,.33-.06.45-.19.13-.12.19-.27.19-.45,0-.17-.06-.32-.19-.44-.12-.12-.27-.18-.45-.19h0Zm-6.76,0c-.18,0-.33.06-.45.19s-.19.27-.19.45.06.32.19.45c.12.12.28.19.45.19s.33-.06.45-.19c.12-.12.19-.27.19-.45,0-.17-.06-.32-.19-.45-.12-.12-.27-.18-.45-.18h0Zm-6.76,0c-.18,0-.33.06-.45.19-.12.12-.19.27-.19.45s.06.32.19.45c.12.12.28.19.45.19s.33-.06.45-.19c.12-.12.19-.27.19-.45,0-.17-.06-.32-.19-.45-.12-.12-.27-.18-.45-.18h0Zm-6.76,0c-.18,0-.33.06-.45.19-.12.12-.19.27-.18.45,0,.17.06.32.19.45s.28.18.45.18c.18,0,.33-.06.45-.19.12-.12.19-.27.19-.45,0-.17-.06-.32-.19-.45-.13-.12-.28-.18-.45-.18h0Zm-6.76,0c-.18,0-.33.06-.45.18-.13.12-.19.27-.19.45,0,.17.06.32.19.45.12.12.28.19.45.19.18,0,.33-.06.45-.19.12-.12.19-.27.19-.45,0-.17-.06-.32-.19-.44-.12-.12-.27-.18-.45-.18h0Zm-6.76,0c-.18,0-.33.06-.45.19-.12.12-.19.27-.19.45s.06.32.19.45c.12.12.28.19.45.19s.33-.06.45-.19c.12-.12.19-.27.19-.45,0-.17-.06-.32-.19-.45-.12-.12-.27-.18-.45-.18h0Zm-6.76,0c-.18,0-.33.06-.45.19-.12.12-.19.27-.19.45s.06.32.19.45c.12.12.28.19.45.19s.33-.06.45-.19c.12-.12.19-.27.19-.45,0-.17-.06-.32-.19-.44s-.27-.18-.45-.19h0Zm-6.76,0c-.18,0-.33.06-.45.19-.12.12-.19.27-.19.45,0,.17.06.32.19.45.12.12.28.19.45.18.18,0,.33-.06.45-.19.12-.12.19-.27.19-.45,0-.17-.06-.32-.19-.44-.12-.12-.27-.18-.45-.18h0Zm-6.76,0c-.18,0-.33.06-.45.18-.13.12-.19.27-.19.45,0,.17.06.32.19.45.12.12.28.19.45.19s.33-.06.45-.19c.12-.12.19-.27.19-.45,0-.17-.06-.32-.19-.44-.12-.12-.27-.18-.45-.18h0Zm-6.76,0c-.18,0-.33.06-.45.18-.13.12-.19.27-.19.45,0,.17.06.32.19.45.12.12.28.19.45.19.18,0,.33-.06.45-.19.12-.12.19-.27.19-.45,0-.17-.06-.32-.19-.44-.12-.12-.27-.18-.45-.18h0Zm60.81-6.47c-.18,0-.33.06-.45.18-.13.12-.19.27-.19.45,0,.18.06.33.19.45.12.12.28.19.45.19.18,0,.33-.06.45-.19.13-.12.19-.27.19-.45,0-.17-.06-.32-.19-.44-.12-.12-.27-.19-.45-.19Zm-6.76,0c-.18,0-.33.06-.45.19-.12.12-.19.27-.19.45s.06.32.19.45c.12.12.28.19.45.18s.33-.06.45-.19c.12-.12.19-.27.19-.45,0-.17-.06-.32-.19-.45-.12-.12-.28-.18-.45-.18h0Zm-6.76,0c-.18,0-.33.06-.45.19-.12.12-.19.27-.19.45s.06.32.19.45c.12.12.28.19.45.18s.33-.06.45-.19c.12-.12.19-.27.19-.45,0-.17-.06-.32-.19-.45-.12-.12-.28-.18-.45-.18Zm-6.76,0c-.18,0-.33.06-.45.19-.12.12-.19.27-.18.45,0,.17.06.32.19.45.13.12.28.18.45.18.18,0,.33-.06.45-.19.12-.12.19-.27.19-.45,0-.18-.06-.32-.19-.45s-.28-.18-.45-.18Zm-6.76,0c-.18,0-.33.06-.45.18-.13.12-.19.27-.19.45,0,.17.06.32.19.45.12.12.28.19.45.19.18,0,.33-.06.45-.19.12-.12.19-.27.19-.45,0-.17-.06-.32-.19-.45-.12-.12-.27-.18-.45-.19Zm-6.76,0c-.18,0-.33.06-.45.19-.12.12-.19.27-.19.45,0,.17.06.32.19.45.12.12.28.19.45.18.18,0,.33-.06.45-.19s.19-.27.19-.45c0-.17-.06-.32-.19-.45-.12-.12-.28-.18-.45-.18Zm-6.76,0c-.18,0-.33.06-.45.19-.12.12-.19.27-.19.45,0,.17.06.32.19.45.12.12.28.19.45.18.18,0,.33-.06.45-.19s.19-.27.19-.45c0-.17-.06-.32-.19-.45-.12-.12-.27-.19-.45-.19h0Zm-6.76,0c-.18,0-.33.06-.45.19-.12.12-.19.27-.19.45s.06.32.19.45c.12.12.28.19.45.18.18,0,.33-.06.45-.19.12-.12.19-.27.19-.45,0-.17-.06-.32-.19-.45-.12-.12-.28-.18-.45-.18h0Zm-6.76,0c-.18,0-.33.06-.45.18-.13.12-.19.27-.19.45,0,.17.06.32.19.45.12.12.28.19.45.19.18,0,.33-.06.45-.19.12-.12.19-.27.19-.45,0-.17-.06-.32-.19-.45-.12-.12-.27-.18-.45-.19Zm-6.76,0c-.18,0-.33.06-.45.18-.13.12-.19.27-.19.45,0,.17.06.32.19.45.12.12.28.19.45.19.18,0,.33-.06.45-.19.12-.12.19-.27.19-.45,0-.17-.06-.32-.19-.45s-.27-.18-.45-.19Zm60.81-6.48c-.18,0-.33.06-.45.18s-.19.27-.19.45c0,.17.06.32.18.45.12.12.27.19.45.19.18,0,.33-.06.45-.18.13-.12.19-.27.19-.45,0-.17-.06-.32-.18-.45-.12-.12-.27-.19-.45-.19h0Zm-6.76,0c-.18,0-.33.06-.45.19-.12.12-.19.27-.19.45s.06.32.19.45.28.19.45.19.33-.06.45-.19c.12-.12.19-.27.19-.45,0-.17-.06-.32-.19-.45s-.27-.18-.45-.18h0Zm-6.76,0c-.18,0-.33.06-.45.19-.12.12-.19.27-.19.45s.06.32.19.45c.12.12.28.19.45.19s.33-.06.45-.19c.12-.12.19-.27.19-.45,0-.17-.06-.32-.19-.45-.12-.12-.27-.18-.45-.18h0Zm-6.76,0c-.18,0-.33.06-.45.19-.12.12-.19.27-.18.45,0,.17.06.32.19.45.12.12.27.19.45.19.18,0,.33-.06.45-.18.13-.12.19-.27.19-.44,0-.18-.06-.33-.19-.45-.13-.12-.28-.19-.46-.18h0Zm-6.76,0c-.18,0-.33.06-.45.18-.13.12-.19.27-.19.45,0,.17.06.32.19.45.12.12.28.19.45.19s.33-.06.45-.19c.12-.12.19-.27.19-.45,0-.17-.06-.32-.19-.44-.12-.12-.27-.18-.45-.18h0Zm-6.76,0c-.18,0-.33.06-.45.19-.12.12-.19.27-.19.45s.06.32.19.45c.12.12.28.19.45.19s.33-.06.45-.19c.12-.12.19-.27.19-.45,0-.17-.06-.32-.19-.45-.12-.12-.27-.18-.45-.18h0Zm-6.76,0c-.18,0-.33.06-.45.19-.12.12-.19.27-.19.45s.06.32.19.45c.12.12.28.19.45.19s.33-.06.45-.19c.12-.12.19-.27.19-.45,0-.17-.06-.32-.19-.44-.12-.12-.27-.18-.45-.19h0Zm-6.76,0c-.18,0-.33.06-.45.18s-.19.27-.19.45c0,.17.06.32.18.45.12.12.27.19.45.19.18,0,.33-.06.45-.18.13-.12.19-.27.19-.44,0-.18-.06-.33-.19-.45-.12-.12-.28-.19-.45-.19h0Zm-6.76,0c-.18,0-.33.06-.45.18s-.19.27-.19.45c0,.17.06.32.19.45.12.12.28.19.45.19s.33-.06.45-.19c.12-.12.19-.27.19-.45,0-.17-.06-.32-.19-.44s-.27-.18-.45-.18h0Zm-6.76,0c-.18,0-.33.06-.45.18-.12.12-.19.27-.19.45,0,.17.06.32.18.45.12.12.27.19.45.19.18,0,.33-.06.45-.18.13-.12.19-.27.19-.45,0-.18-.06-.32-.19-.45-.12-.12-.28-.19-.45-.19h0Zm60.81-6.47c-.18,0-.33.06-.45.18s-.19.27-.19.45c0,.17.06.32.18.45.12.12.27.19.45.19.18,0,.33-.06.45-.18.13-.12.19-.27.19-.45,0-.17-.06-.32-.18-.45-.12-.12-.27-.19-.45-.19Zm-6.76,0c-.18,0-.33.06-.45.19-.12.12-.19.27-.19.45s.06.32.19.45c.12.12.28.19.45.18s.33-.06.45-.19c.12-.12.19-.27.19-.45,0-.17-.06-.32-.19-.45-.12-.12-.28-.18-.45-.18h0Zm-6.76,0c-.18,0-.33.06-.45.19-.12.12-.19.27-.19.45,0,.17.06.32.19.45.12.12.28.19.45.18s.33-.06.45-.19c.12-.12.19-.27.19-.45,0-.17-.06-.32-.19-.45-.12-.12-.28-.18-.45-.18Zm-6.76,0c-.18,0-.33.06-.45.19-.12.12-.19.27-.18.45,0,.17.06.32.19.45.12.12.27.19.45.19.18,0,.33-.06.45-.18.13-.12.19-.27.19-.44,0-.18-.06-.33-.19-.45-.13-.13-.28-.19-.46-.19Zm-6.76,0c-.18,0-.33.06-.45.18-.13.12-.19.27-.19.45,0,.17.06.32.19.45s.28.19.45.19c.18,0,.33-.06.45-.19.12-.12.19-.27.19-.45,0-.17-.06-.32-.19-.45-.12-.12-.27-.18-.45-.19Zm-6.76,0c-.18,0-.33.06-.45.19-.12.12-.19.27-.19.45,0,.17.06.32.19.45.12.12.28.19.45.18s.33-.06.45-.19c.12-.12.19-.27.19-.45,0-.17-.06-.32-.19-.45-.12-.12-.28-.18-.45-.18Zm-6.76,0c-.18,0-.33.06-.45.19-.12.12-.19.27-.19.45,0,.17.06.32.19.45.12.12.28.19.45.18.18,0,.33-.06.45-.19.12-.12.19-.27.19-.45,0-.17-.06-.32-.19-.45-.12-.12-.27-.19-.45-.19h0Zm-6.76,0c-.18,0-.33.06-.45.18s-.19.27-.19.45.06.32.18.45.27.19.45.19c.18,0,.33-.06.45-.18.13-.12.19-.27.19-.44,0-.18-.06-.33-.18-.45-.12-.13-.28-.19-.45-.19h0Zm-6.76,0c-.18,0-.33.06-.45.18-.13.12-.19.27-.19.45,0,.17.06.32.19.45.12.12.28.19.45.19.18,0,.33-.06.45-.19.12-.12.19-.27.19-.45,0-.17-.06-.32-.19-.45s-.27-.18-.45-.19Zm-6.76,0c-.18,0-.33.06-.45.18-.12.12-.19.27-.19.45,0,.17.06.32.18.45.12.12.27.19.45.19.18,0,.33-.06.45-.18.13-.12.19-.27.19-.45,0-.18-.06-.33-.18-.45-.12-.13-.28-.19-.45-.19Zm60.82-6.48c-.18,0-.33.06-.46.18-.13.12-.19.27-.19.45,0,.18.06.33.18.45.12.13.27.19.45.19s.33-.06.45-.18c.13-.12.19-.27.19-.45,0-.17-.06-.32-.18-.45s-.27-.19-.45-.19h0Zm-6.76,0c-.18,0-.33.06-.45.19-.12.12-.19.27-.19.45s.06.32.19.45c.12.12.28.19.45.19s.33-.06.45-.19c.12-.12.19-.27.19-.45s-.06-.32-.19-.45c-.13-.12-.28-.19-.45-.18h0Zm-6.76,0c-.18,0-.33.06-.45.19-.12.12-.19.27-.19.45s.06.32.19.45c.12.12.28.19.45.19s.33-.06.45-.19c.12-.12.19-.27.19-.45,0-.18-.06-.32-.19-.45-.13-.12-.28-.19-.45-.18h0Zm-6.76,0c-.18,0-.33.06-.45.18-.13.12-.19.27-.19.45s.06.32.19.45c.12.12.28.19.45.19s.33-.06.45-.19c.12-.12.19-.27.19-.45s-.06-.32-.19-.45c-.13-.12-.28-.19-.45-.18h0Zm-6.76,0c-.18,0-.33.06-.45.18-.13.12-.19.27-.19.45,0,.17.06.32.19.45.12.12.28.19.45.19.18,0,.33-.06.45-.19s.19-.27.19-.45-.06-.32-.19-.45c-.13-.12-.28-.19-.45-.18h0Zm-6.76,0c-.18,0-.33.06-.45.19-.12.12-.19.27-.19.45s.06.32.19.45c.12.12.28.19.45.19s.33-.06.45-.19c.12-.12.19-.27.19-.45s-.06-.32-.19-.45c-.13-.12-.28-.19-.45-.18h0Zm-6.76,0c-.18,0-.33.06-.45.19-.12.12-.19.27-.19.45s.06.32.19.45c.12.12.28.19.45.19s.33-.06.45-.19c.12-.12.19-.27.19-.45s-.06-.32-.19-.45c-.12-.12-.28-.19-.45-.19Zm-6.76,0c-.18,0-.33.06-.45.19-.12.12-.19.27-.19.45s.06.32.19.45c.12.12.28.19.45.19s.33-.06.45-.19c.12-.12.19-.27.19-.45s-.06-.32-.19-.45c-.12-.12-.28-.19-.45-.19h0Zm-6.76,0c-.18,0-.33.06-.45.18s-.19.27-.19.45c0,.17.06.32.19.45.12.12.28.19.45.19s.33-.06.45-.19.19-.27.19-.45-.06-.32-.19-.45c-.12-.12-.27-.19-.45-.19Zm-6.76,0c-.18,0-.33.06-.45.18-.13.12-.19.27-.19.45,0,.17.06.32.19.45.12.12.28.19.45.19s.33-.06.45-.19.19-.27.19-.45-.06-.32-.19-.45c-.12-.12-.27-.19-.45-.19ZM61.53,1.31c.18,0,.33-.06.45-.19.12-.12.19-.27.19-.45,0-.17-.06-.32-.19-.45-.12-.12-.28-.19-.45-.18-.18,0-.33.06-.45.19-.12.12-.19.27-.19.45,0,.17.06.32.19.45.12.12.28.18.45.18ZM54.77.05c-.18,0-.33.06-.45.19-.12.12-.19.27-.19.45s.06.32.19.45c.12.12.28.19.45.19s.33-.06.45-.19c.12-.12.19-.27.19-.45,0-.17-.06-.32-.19-.45-.12-.12-.28-.19-.45-.19h0ZM48.01.05c-.18,0-.33.06-.45.19-.12.12-.19.27-.19.45s.06.32.19.45c.12.12.28.19.45.19s.33-.06.45-.19c.12-.12.19-.27.19-.45s-.06-.32-.19-.45c-.12-.12-.28-.19-.45-.19ZM41.26.05c-.18,0-.33.06-.45.19-.12.12-.19.27-.18.45,0,.17.06.32.19.45s.28.18.45.18c.18,0,.33-.06.45-.19.12-.12.19-.27.19-.45,0-.18-.06-.33-.19-.45s-.28-.18-.45-.18ZM34.5.05c-.18,0-.33.06-.45.18-.13.12-.19.27-.19.45,0,.17.06.32.19.45.12.12.28.19.45.19s.33-.06.45-.19.19-.27.19-.45-.06-.32-.19-.45c-.12-.12-.27-.19-.45-.19ZM27.74.05c-.18,0-.33.06-.45.19-.12.12-.19.27-.19.45s.06.32.19.45c.12.12.28.19.45.19s.33-.06.45-.19c.12-.12.19-.27.19-.45s-.06-.32-.19-.45c-.13-.12-.28-.19-.45-.18h0ZM20.99.05c-.18,0-.33.06-.45.19-.12.12-.19.27-.19.45s.06.32.19.45c.12.12.28.19.45.19s.33-.06.45-.19c.12-.12.19-.27.19-.45s-.06-.32-.19-.45c-.12-.12-.28-.19-.45-.19ZM14.23.05c-.18,0-.33.06-.45.19-.12.12-.19.27-.19.45,0,.17.06.32.19.45.12.12.28.19.45.19s.33-.06.45-.19c.12-.12.19-.27.19-.45s-.06-.32-.19-.45c-.12-.12-.28-.19-.45-.19ZM7.47.05c-.18,0-.33.06-.45.18s-.19.27-.19.45c0,.17.06.32.19.45.12.12.28.19.45.19s.33-.06.45-.19.19-.27.19-.45-.06-.32-.19-.45c-.12-.12-.27-.19-.45-.19ZM1.35.68c0,.17-.06.32-.19.45-.12.12-.28.19-.45.19s-.33-.06-.45-.19c-.12-.12-.19-.27-.19-.45,0-.17.06-.32.19-.45C.39.11.54.05.71.05c.18,0,.33.06.45.19.12.12.19.27.19.45Z"/></g></g></svg>